<mxfile host="app.diagrams.net" modified="2023-04-06T11:05:21.827Z" agent="Mozilla/5.0 (Windows NT 10.0; Win64; x64) AppleWebKit/537.36 (KHTML, like Gecko) Chrome/112.0.0.0 Safari/537.36" version="21.1.1" etag="6g40jy7TYyF6KHrG5k2s" type="github">
  <diagram name="第 1 页" id="tTGarCq_wSqdvyR18uml">
    <mxGraphModel>
      <root>
        <mxCell id="0" />
        <mxCell id="1" parent="0" />
      </root>
    </mxGraphModel>
  </diagram>
</mxfile>
